<svg version="1.1" xmlns="http://www.w3.org/2000/svg" xmlns:xlink="http://www.w3.org/1999/xlink" width="143.44121" height="175.93548" viewBox="0,0,143.44121,175.93548"><g transform="translate(-168.27939,-92.03226)"><g data-paper-data="{&quot;isPaintingLayer&quot;:true}" fill-rule="nonzero" stroke-linejoin="miter" stroke-miterlimit="10" stroke-dasharray="" stroke-dashoffset="0" style="mix-blend-mode: normal"><path d="M168.27939,216.44413c1.481,-0.803 5.044,-0.136 6.699,-0.136c2.458,0.004 4.941,0.05 7.423,0.087c1.722,0.028 14.14,0.144 20.417,-1.265c11.383,-2.554 17.334,-7.698 18.956,-7.674c2.512,0.037 -11.202,38.517 -11.202,38.517c0,0 -12.773,-0.931 -20.532,-5.317c-14.152,-7.995 -21.368,-21.885 -21.761,-24.212z" fill="#d00083" stroke="none" stroke-width="1" stroke-linecap="butt"/><path d="M218.28402,179.00392c0.57792,-0.12834 -0.34472,-2.92688 0.02332,-3.00861c0.36706,-0.08151 0.82383,2.73648 1.47205,2.54643c0.64897,-0.19124 -0.34247,-2.70919 0.27157,-2.84555c0.61404,-0.13636 1.2586,5.49687 1.63486,7.07586c0.51197,2.13478 0.89704,4.30696 1.46477,6.42526c0.51006,1.8955 1.22241,3.72867 2.57596,5.18794c0.79102,0.84972 4.92721,2.54639 8.81783,2.00711c2.343,-0.31237 4.60689,-1.06403 6.67147,-2.21499l3.41737,3.30781c0,0 -4.98989,2.66514 -9.85509,3.34094c-3.3908,0.47437 -7.21684,-0.05169 -8.08017,-0.38751c-2.98859,-1.14636 -5.24954,-4.24695 -6.0379,-7.01282c-0.74576,-2.61553 -1.40311,-5.27118 -2.06643,-7.91218c-0.58559,-2.35096 -2.47289,-8.34947 -1.9199,-8.64539c0.553,-0.29592 1.04897,2.26035 1.61029,2.13569z" fill="#d00083" stroke="none" stroke-width="1" stroke-linecap="butt"/><path d="M270.83508,224.56117l15.26061,-0.03664c-3.42677,18.10982 -6.36267,38.46132 -6.67467,42.23173c1.13839,0.39437 2.21398,0.04519 3.2643,0.1301l0.11096,1.06106c-1.49041,-0.08107 -7.87614,0.198 -9.39531,-0.2011c0.00247,-1.29089 -2.5659,-43.18514 -2.5659,-43.18514z" fill="#d00083" stroke="none" stroke-width="1" stroke-linecap="butt"/><path d="M217.55641,209.65213c1.353,-1.298 3.215,-2.06 4.659,-3.135c2.202,-1.647 4.8,-2.85 7.035,-4.485c0.724,-0.523 2.156,-1.73 2.156,-1.73l2.619,-3.971c0,0 1.874,-5.095 2.181,-6.772c1.241,-6.73 1.307,-26.732 1.349,-33.569l47.089,13.135l2.644,9.746c0,0 0.104,10.025 0.294,15.009c0.377,9.865 0.782,19.359 -0.716,29.163c-0.682,4.485 -1.419,8.744 -4.179,12.472c-2.897,3.909 -6.335,7.134 -11.019,8.815c-8.657,3.101 -49.2,2.117 -52.064,1.824c-2.979,-0.304 -6.099,0.19 -9.045,-0.181c-0.455,-2.195 -0.083,-4.84 -0.05,-7.072c0.133,-9.334 -0.331,-22.173 7.047,-29.249z" fill="#ff4fc6" stroke="none" stroke-width="1" stroke-linecap="butt"/><path d="M287.15139,167.13613l0.129,11.735l-26.156,-11.377l26.027,-0.358" fill="#d00083" stroke="none" stroke-width="1" stroke-linecap="butt"/><path d="M302.35697,178.26299c0.53422,0.33591 -1.77783,6.18385 -2.53412,8.48569c-0.85076,2.58672 -1.69661,5.18847 -2.62776,7.74388c-0.98442,2.70231 -2.94981,5.27864 -6.01168,6.2042c-0.89283,0.27084 -5.25104,0.88233 -8.59629,0.16719c-4.81101,-1.02449 -7.74435,-3.4649 -8.98953,-3.92233l-0.15165,-0.63494c0.47255,-1.25736 0.87303,-2.5425 1.19572,-3.8467c1.06909,0.12097 4.57779,3.1684 8.48465,3.9949c3.84201,0.81652 8.08937,-0.58053 8.93893,-1.37046c1.45841,-1.35744 2.29639,-3.13603 2.94088,-4.99013c0.71798,-2.0722 1.25761,-4.21123 1.92116,-6.30386c0.48837,-1.54798 1.53471,-7.12059 2.1374,-6.9406c0.6027,0.17999 -0.56653,2.62046 0.06737,2.85673c0.63265,0.23694 1.29036,-2.54206 1.65064,-2.43447c0.36124,0.10788 -0.75974,2.83411 -0.19249,3.00351c0.56246,0.16797 1.23256,-2.34851 1.76677,-2.0126z" fill="#ff4fc6" stroke="none" stroke-width="1" stroke-linecap="butt"/><path d="M255.18125,212.16064c0,0 -10.618,37.405 -10.618,43.735c0.571,0.099 3.562,-0.308 3.997,0.305c-0.364,1.257 -7.734,0.449 -9.228,0.206c-0.459,-1.363 -2.358,-43.117 -2.358,-43.117z" fill="#ff4fc6" stroke="none" stroke-width="1" stroke-linecap="butt"/><path d="M274.23539,93.45913l17.628,3.666l-8.814,2.022l-8.814,-5.688" fill="#aaa082" stroke="none" stroke-width="1" stroke-linecap="butt"/><path d="M286.50439,152.03913l9.434,-6.643c1.234,2.233 2.581,4.402 4.035,6.499z" fill="#aaa082" stroke="none" stroke-width="1" stroke-linecap="butt"/><path d="M285.52639,107.64913c2.971,1.141 16.858,7.48 16.858,7.48l-17.292,6.834c0,0 0.29,-12.473 0.434,-14.314z" fill="#dcd2b4" stroke="none" stroke-width="1" stroke-linecap="butt"/><path d="M300.11437,134.11413c-1.8,0.926 -15.182,4.967 -15.182,4.967l-0.381,-10.977c0,0 15.563,5.944 15.563,6.01z" fill="#aaa082" stroke="none" stroke-width="1" stroke-linecap="butt"/><path d="M301.17039,124.89513l-15.67,4.152c0,0 -0.873,-6.079 -0.645,-8.262c2.309,0.181 16.315,4.11 16.315,4.11z" fill="#dcd2b4" stroke="none" stroke-width="1" stroke-linecap="butt"/><path d="M297.89938,104.78613c-3.207,1.36 -11.056,4.008 -14.482,4.745c-0.696,-1.178 -1.155,-10.219 -2.227,-11.665c0.017,-0.049 14.562,5.652 16.709,6.92z" fill="#dcd2b4" stroke="none" stroke-width="1" stroke-linecap="butt"/><path d="M284.41638,138.15013l11.909,4.692l-11.619,6.668l-0.29,-11.36" fill="#aaa082" stroke="none" stroke-width="1" stroke-linecap="butt"/><path d="M249.58741,117.25913c2.582,-15.047 9.348,-22.688 9.348,-22.688c0,0 8.689,-2.331 10.738,-2.245c2.954,0.12 10.345,2.752 13.427,5.738c0.729,0.669 1.326,1.467 1.763,2.352c0.961,1.93 1.587,4.008 1.854,6.146c0.298,2.753 0.437,5.522 0.414,8.291c0,2.884 -0.509,15.01 -0.576,18.202c-0.024,1.153 -0.48,10.516 -0.55,12.897c0,0.556 -0.455,7.55 -0.455,7.55l-36.385,-1.998c0,0 -1.862,-20.937 0.422,-34.245z" fill="#000000" stroke="none" stroke-width="1" stroke-linecap="butt"/><path d="M260.20441,95.73313c2.069,-0.779 3.935,-3.192 5.971,-3.122c1.141,-0.41 2.362,-0.551 3.567,-0.412c4.792,0.362 16.486,1.454 16.486,1.454c0,0 -24.84,2.924 -26.024,2.08z" fill="#faf0e6" stroke="none" stroke-width="1" stroke-linecap="butt"/><path d="M252.92041,103.83113c2.206,0.428 20.669,9.651 23.396,12.567c-0.84,0.708 -23.586,5.429 -25.382,5.157c-0.976,-1.413 0.939,-14.936 1.986,-17.724z" fill="#ffffff" stroke="none" stroke-width="1" stroke-linecap="butt"/><path d="M250.36741,117.60113c2.16,1.425 23.636,10.515 25.332,12.476c-2.334,1.079 -25.75,8.316 -25.75,8.316c0,0 -1.56,-22.11 0.418,-20.792z" fill="#ffffff" stroke="none" stroke-width="1" stroke-linecap="butt"/><path d="M265.58537,142.16613c-0.008,0.054 -14.983,4.943 -14.983,4.943l-0.199,-10.256c0,0 13.411,4.205 15.182,5.313z" fill="#dcd2b4" stroke="none" stroke-width="1" stroke-linecap="butt"/><path d="M302.36539,139.54713c1.713,3.53 3.464,8.159 4.018,12.039c-3.525,-0.201 -7.047,-0.057 -10.58,-0.251c0.658,-2.241 5.259,-9.931 6.562,-11.788z" fill="#faf0e6" stroke="none" stroke-width="1" stroke-linecap="butt"/><path d="M288.10138,141.62713l9.282,10.676l-13.614,0.103l4.332,-10.779" fill="#faf0e6" stroke="none" stroke-width="1" stroke-linecap="butt"/><path d="M273.14139,153.37013c-0.381,-0.639 6.207,-10.046 7.035,-11.694h0.173c1.581,2.859 4.639,9.482 5.835,12.518c-1.635,0.766 -11.317,-0.61 -13.043,-0.824z" fill="#dcd2b4" stroke="none" stroke-width="1" stroke-linecap="butt"/><path d="M271.13038,142.62813c0.534,0.494 4.324,8.225 4.581,9.292c-1.511,0.194 -8.744,0.807 -8.959,0.729c-0.343,-1.87 3.679,-8.316 4.378,-10.021z" fill="#faf0e6" stroke="none" stroke-width="1" stroke-linecap="butt"/><path d="M261.88538,151.60313c1.291,-2.776 3.016,-5.767 3.016,-5.767c0,0 1.655,3.114 2.959,5.767z" fill="#faf0e6" stroke="none" stroke-width="1" stroke-linecap="butt"/><path d="M257.93338,153.06113c1.291,-2.772 3.021,-5.767 3.021,-5.767c0,0 1.655,3.114 2.954,5.767z" fill="#faf0e6" stroke="none" stroke-width="1" stroke-linecap="butt"/><path d="M305.98437,152.27413c0,0 1.933,-8.934 2.541,-10.24c1.378,2.006 3.393,8.346 2.922,9.993c-1.109,0.21 -5.463,0.247 -5.463,0.247z" fill="#dcd2b4" stroke="none" stroke-width="1" stroke-linecap="butt"/><path d="M278.02839,106.37213c-2.955,0.157 -24.443,-0.222 -24.443,-0.222l8.313,-10.957c0,0 15.36,9.89 16.13,11.179z" fill="#ffffff" stroke="none" stroke-width="1" stroke-linecap="butt"/><path d="M237.00341,142.82913c0.273,-11.29 0.074,-24.569 5.412,-34.83c2.574,-4.943 5.595,-9.251 10.759,-11.792c2.646,-1.372 5.44,-2.439 8.329,-3.18c2.342,-0.54 5.893,-1.351 8.256,-0.824c-4.631,1.532 -7.78,3.987 -10.3,8.168c-2.797,4.634 -4.258,10.083 -5.454,15.31c-1.075,5.007 -1.561,10.122 -1.448,15.24c0.033,2.571 0.046,5.149 0.182,7.707c0.029,0.503 0.178,11.286 0.178,11.286c0,0 58.457,1.153 58.626,0.943c1.027,2.266 -2.689,7.773 -3.997,9.375c-2.143,2.62 -10.535,7.715 -11.801,8.164c-1.711,0.656 -3.457,1.218 -5.231,1.681c-3.264,0.753 -6.653,0.762 -9.989,1.042c-23.867,1.791 -36.177,-1.368 -42.757,-2.908c-0.372,-8.453 -0.968,-16.888 -0.765,-25.382z" fill="#ff4fc6" stroke="none" stroke-width="1" stroke-linecap="butt"/><g><path d="M238.88872,148.81157c0.23058,-0.4019 0.70921,-0.5921 1.15107,-0.4574c3.32347,0.29512 6.41604,1.88018 7.07111,1.84428l0.35025,0.88141l-5.55637,6.47574l-1.13423,-0.43329c0,0 4.58903,-5.35955 5.07713,-6.1643c-0.8315,-0.28038 -6.55584,-1.55923 -6.95896,-2.14644z" fill="#000000" stroke="none" stroke-width="1" stroke-linecap="butt"/><path d="M240.89599,152.84886l4.89306,-1.94437" fill="none" stroke="#000000" stroke-width="1.5" stroke-linecap="round"/></g></g></g></svg>