<svg version="1.1" xmlns="http://www.w3.org/2000/svg" xmlns:xlink="http://www.w3.org/1999/xlink" width="117.51444" height="185.17294" viewBox="0,0,117.51444,185.17294"><g transform="translate(-182.14233,-66.99953)"><g data-paper-data="{&quot;isPaintingLayer&quot;:true}" fill-rule="nonzero" stroke="none" stroke-width="1" stroke-linecap="butt" stroke-linejoin="miter" stroke-miterlimit="10" stroke-dasharray="" stroke-dashoffset="0" style="mix-blend-mode: normal"><path d="M212.16433,239.90554c-0.869,3.825 -2.075,8.084 -5.81,9.956c-3.817,1.908 -8.898,1.78 -13.098,2.115c-2.039,0.157 -4.04,0.062 -6.099,0.107c-1.474,0.029 -3.734,0.376 -5.015,-0.533c1.412,-0.603 2.977,-0.652 4.361,-1.396c1.23,-0.727 2.384,-1.575 3.446,-2.532c1.614,-1.364 3.335,-3.099 4.118,-5.102c1.964,-5.044 0.111,-13.525 0.799,-18.763c0.395,-0.145 15.293,-8.515 20.946,-8.068c0.741,1.652 -3.092,21.807 -3.648,24.216z" fill="#d00083"/><path d="M246.60233,207.73254h15.235c-3.553,18.102 -6.621,38.419 -6.958,42.207c1.136,0.393 2.215,0.05 3.261,0.137c0.037,0.375 0.066,0.673 0.103,1.061c-1.491,-0.087 -7.865,0.178 -9.376,-0.227c0,-1.285 -2.265,-43.178 -2.265,-43.178z" fill="#d00083"/><path d="M194.91633,218.6277c0.128,-9.361 -0.333,-22.238 7,-29.331c1.347,-1.301 3.2,-2.065 4.637,-3.144c2.19,-1.652 4.776,-2.858 7,-4.498c0.72,-0.525 2.145,-1.735 2.145,-1.735l1.98429,-2.03697l0.62171,-1.94603c0,0 1.866,-5.11 2.17,-6.791c2.002,-10.976 -0.107,-22.308 1.94,-33.305c0.222,-1.206 0.494,-2.511 0.774,-3.738l30.31,-3.838l31.183,2.065c3.627,2.71 -0.441,6.42 -3.434,7.849c-1.763,0.847 -3.397,1.653 -4.9,2.946c-0.326,0.281 -3.051,2.375 -3.953,5.056c-1.371,4.094 -1.005,9.572 -1.1,12.228c-0.177,5.003 0.103,10.055 0.293,15.054c0.374,9.894 0.778,19.416 -0.713,29.248c-0.679,4.498 -1.412,8.77 -4.158,12.508c-2.883,3.921 -6.305,7.155 -10.966,8.841c-8.614,3.111 -48.959,2.123 -51.808,1.83c-2.965,-0.306 -6.069,0.19 -9.001,-0.182c-0.428,-2.189 -0.058,-4.841 -0.025,-7.08z" fill="#ff4fc6"/><path d="M237.12533,206.60054c0,0 -10.565,37.514 -10.565,43.864c0.568,0.099 3.545,-0.31 3.977,0.306c-0.362,1.26 -7.696,0.45 -9.182,0.206c-0.457,-1.367 -2.347,-43.244 -2.347,-43.244z" fill="#ff4fc6"/><path d="M299.65666,164.20908c0.0307,0.62837 -6.10302,2.0973 -8.42893,2.80054c-2.61408,0.79056 -5.23892,1.59312 -7.87252,2.29955c-2.78543,0.74739 -6.03107,0.62343 -8.54634,-1.33963c-0.73373,-0.57182 -3.7332,-3.77022 -5.06211,-6.90406c-1.91544,-4.5059 -1.58921,-8.29399 -1.9257,-9.56998l0.43465,-0.48688c1.30477,-0.33551 1.85597,-1.04011 3.1144,-1.52462c0.51264,0.94033 0.75141,5.83666 2.30971,9.49282c1.53021,3.597 5.11302,6.2549 6.24931,6.49381c1.95199,0.41046 3.89459,0.07272 5.78742,-0.46556c2.11583,-0.60289 4.18315,-1.38987 6.28449,-2.04906c1.55284,-0.48959 6.73366,-2.8316 6.93104,-2.23753c0.19738,0.59407 -2.47929,1.04083 -2.31042,1.69179c0.16792,0.65128 2.82937,-0.40582 2.94729,-0.05089c0.11824,0.35587 -2.76576,1.0064 -2.58004,1.56535c0.18414,0.55421 2.63736,-0.34307 2.66774,0.28435z" fill="#ff4fc6"/><path d="M194.07213,158.54159c0.31355,-0.4986 -2.33205,-1.81622 -2.13242,-2.13366c0.19963,-0.31745 2.53201,1.34422 2.85027,0.75172c0.31965,-0.59282 -2.17347,-1.66451 -1.84075,-2.19359c0.33325,-0.52992 4.80679,2.97912 6.19824,3.82463c1.88374,1.14092 3.70452,2.39698 5.61522,3.48752c1.71058,0.97295 3.51675,1.76385 5.51032,1.83034c1.15996,0.03958 5.27343,-1.68889 7.61613,-4.81681c1.41968,-1.87618 2.47,-4.00472 3.09598,-6.27372c0,0 1.03061,-5.67069 2.91302,-8.02095c0.86645,-1.08179 3.35588,0.07264 3.4333,0.07124c0.72179,-0.01308 -1.58816,7.8635 -1.58816,7.8635c0,0 -1.59812,5.40592 -4.52514,9.31461c-2.03737,2.72692 -5.09698,5.06379 -5.93975,5.43277c-2.91396,1.30504 -6.71393,0.72039 -9.24104,-0.66918c-2.39026,-1.31415 -4.74741,-2.71852 -7.09781,-4.10919c-2.09134,-1.23721 -7.69837,-4.12538 -7.51882,-4.72834c0.17901,-0.60211 2.33999,0.86436 2.65142,0.36914z" data-paper-data="{&quot;index&quot;:null}" fill="#d00083"/><g><path d="M273.38833,129.73454c-0.075,2.466 -0.313,4.755 -1.722,6.87l-1.111,0.524c-3.027,-0.628 -3.035,-5.234 -2.557,-7.559c1.857,0.132 3.57,-0.091 5.39,0.165z" fill="#ffffff"/><path d="M275.10533,128.69354h3.5c1.885,9.476 -6.16,8.919 -3.5,0z" fill="#ffffff"/><path d="M262.74333,127.33854h3.5c1.886,9.476 -6.16,8.923 -3.5,0z" fill="#dcd2b4"/><path d="M257.62533,126.76854h3.504c1.882,9.476 -6.164,8.919 -3.504,0z" fill="#ffffff"/><path d="M252.59833,125.91354h3.504c1.865,9.476 -6.177,8.918 -3.504,0z" fill="#ffffff"/><path d="M280.21933,127.90854h3.504c1.882,9.476 -6.164,8.923 -3.504,0z" fill="#faf0e6"/><path d="M249.21733,108.14554c2.631,-0.128 5.271,-0.07 7.906,-0.157c5.913,-0.198 11.809,0.049 17.726,-0.161c2.92,0.553 5.938,0.285 8.894,0.904c2.541,0.527 4.966,1.506 7.161,2.892c4.184,2.623 6.679,8.072 6.938,12.91c0.12,2.259 -0.44,4.874 -2.528,6.114c-2.314,1.371 -5.765,0.826 -8.314,0.896c-6.588,0.141 -13.176,0.227 -19.764,0.137l-44.001,0.549c0.847,-3.923 2.099,-7.747 3.734,-11.41c1.988,-4.443 5.543,-7.993 9.981,-9.964c3.505,-1.624 11.221,-2.656 12.267,-2.71z" fill="#d00083"/><path d="M290.94933,125.77254c1.553,0 3.537,1.153 2.52,3.049c-0.893,1.673 -2.969,0.731 -3.557,-0.661c0.148,-0.869 0.504,-1.688 1.037,-2.388z" fill="#823c00"/><path d="M285.18933,129.06554c-1.779,1.169 -3.208,-1.26 -2.351,-2.785l1.091,-0.826c1.787,-0.029 2.948,2.516 1.26,3.611z" fill="#823c00"/><path d="M258.25533,120.58354c1.322,0.558 0.132,3.169 -1.103,1.517c0.049,-0.843 0.391,-1.302 1.103,-1.517z" fill="#000000"/></g><text transform="translate(249.76022,101.96971) scale(0.81012,0.81012)" font-size="40" xml:space="preserve" fill="#ffffff" fill-rule="nonzero" stroke="none" stroke-width="1" stroke-linecap="butt" stroke-linejoin="miter" stroke-miterlimit="10" stroke-dasharray="" stroke-dashoffset="0" font-family="Sans Serif" font-weight="normal" text-anchor="start" style="mix-blend-mode: normal"><tspan x="0" dy="0">?</tspan></text></g></g></svg>