<svg version="1.1" xmlns="http://www.w3.org/2000/svg" xmlns:xlink="http://www.w3.org/1999/xlink" width="113.55152" height="153.0526" viewBox="0,0,113.55152,153.0526"><g transform="translate(-182.25975,-99.29423)"><g data-paper-data="{&quot;isPaintingLayer&quot;:true}" fill-rule="nonzero" stroke="none" stroke-width="1" stroke-linecap="butt" stroke-linejoin="miter" stroke-miterlimit="10" stroke-dasharray="" stroke-dashoffset="0" style="mix-blend-mode: normal"><path d="M212.28175,240.0799c-0.869,3.825 -2.075,8.084 -5.81,9.956c-3.817,1.908 -8.898,1.78 -13.098,2.115c-2.039,0.157 -4.04,0.062 -6.099,0.107c-1.474,0.029 -3.734,0.376 -5.015,-0.533c1.412,-0.603 2.977,-0.652 4.361,-1.396c1.23,-0.727 2.384,-1.575 3.446,-2.532c1.614,-1.364 3.335,-3.099 4.118,-5.102c1.964,-5.044 0.111,-13.525 0.799,-18.763c0.395,-0.145 15.293,-8.515 20.946,-8.068c0.741,1.652 -3.092,21.807 -3.648,24.216z" fill="#d00083"/><path d="M246.72975,207.9069h15.235c-3.553,18.102 -6.621,38.419 -6.958,42.207c1.136,0.393 2.215,0.05 3.261,0.137c0.037,0.375 0.066,0.673 0.103,1.061c-1.491,-0.087 -7.865,0.178 -9.376,-0.227c0,-1.285 -2.265,-43.178 -2.265,-43.178z" fill="#d00083"/><path d="M281.83275,121.47496c0,0 -1.00928,5.82947 -0.99159,8.32824c0.01656,2.33865 1.09459,6.21585 1.09459,6.21585l-57.482,2.60586l-1.12,-8.38528l58.499,-8.76466" fill="#000000"/><path d="M195.03675,218.9209c0.128,-9.361 -0.333,-22.238 7,-29.331c1.347,-1.301 3.2,-2.065 4.637,-3.144c2.19,-1.652 4.776,-2.858 7,-4.498c0.72,-0.525 2.145,-1.735 2.145,-1.735l2.718,-1.45l-0.112,-2.533c0,0 1.866,-5.11 2.17,-6.791c2.002,-10.976 -0.107,-22.308 1.94,-33.305c0.222,-1.206 0.494,-2.511 0.774,-3.738c0,0.78 16.24,1.726 33.427,1.726c6.506,0 29.128,-0.71 30.096,-0.194c3.15,1.682 -2.471,6.007 -5.464,7.436c-1.763,0.847 -3.397,1.653 -4.9,2.946c-0.326,0.281 -3.051,2.375 -3.953,5.056c-1.371,4.094 -1.005,6.68 -1.1,9.336c-0.177,5.003 0.103,10.055 0.293,15.054c0.374,9.894 0.778,19.416 -0.713,29.248c-0.679,4.498 -1.412,8.77 -4.158,12.508c-2.883,3.921 -6.305,7.155 -10.966,8.841c-8.614,3.111 -48.959,2.123 -51.808,1.83c-2.965,-0.306 -6.069,0.19 -9.001,-0.182c-0.428,-2.189 -0.058,-4.841 -0.025,-7.08z" fill="#ff4fc6"/><path d="M283.03475,154.3479c0.606,0.169 0.066,6.453 0,8.882c-0.074,2.73 -0.14,5.474 -0.3,8.196c-0.169,2.879 -1.31,5.92 -3.966,7.688c-0.774,0.516 -4.755,2.354 -8.148,2.627c-4.88,0.397 -8.372,-1.107 -9.689,-1.19l-0.325,-0.566c0.093,-1.344 0.108,-2.693 0.045,-4.04c1.054,-0.19 5.266,1.731 9.227,1.405c3.896,-0.318 7.548,-2.88 8.133,-3.883c1.005,-1.723 1.297,-3.673 1.383,-5.639c0.095,-2.198 0,-4.408 0.037,-6.61c0.025,-1.628 -0.564,-7.283 0.062,-7.283c0.626,0 0.206,2.681 0.877,2.726c0.671,0.046 0.507,-2.813 0.881,-2.813c0.375,0 0.083,2.942 0.672,2.942c0.584,0 0.506,-2.611 1.111,-2.442z" fill="#ff4fc6"/><path d="M238.55175,153.9349c0.606,0.169 0.066,6.453 0,8.882c-0.074,2.73 -0.14,5.473 -0.3,8.196c-0.169,2.879 -1.697,6.407 -4.353,8.179c-0.761,0.517 -4.368,1.863 -7.761,2.136c-4.867,0.397 -10.294,-1.128 -10.294,-1.128l2.606,-3.982c2.254,0.678 4.615,0.922 6.959,0.719c3.895,-0.318 7.548,-2.88 8.132,-3.883c1.005,-1.723 1.297,-3.673 1.384,-5.639c0.094,-2.198 0,-4.408 0.037,-6.61c0.025,-1.628 -0.564,-7.283 0.062,-7.283c0.625,0 0.205,2.681 0.877,2.726c0.671,0.046 0.506,-2.813 0.881,-2.813c0.375,0 0.082,2.941 0.671,2.941c0.585,0 0.494,-2.61 1.099,-2.441z" fill="#d00083"/><path d="M237.25875,206.7749c0,0 -10.565,37.514 -10.565,43.864c0.568,0.099 3.545,-0.31 3.977,0.306c-0.362,1.26 -7.696,0.45 -9.182,0.206c-0.457,-1.367 -2.347,-43.244 -2.347,-43.244z" fill="#ff4fc6"/><g><path d="M272.31553,121.74154c0.33703,2.44401 0.48383,4.74066 -0.55298,7.06091l-1.00813,0.70183c-3.08933,-0.11475 -3.86484,-4.655 -3.781,-7.02714c1.85303,-0.17933 3.50491,-0.68469 5.34212,-0.73559z" fill="#ffffff"/><path d="M273.83503,120.42895l3.45105,-0.5833c3.43788,9.02933 -4.58744,9.82088 -3.45105,0.5833z" fill="#ffffff"/><path d="M261.42009,121.15311l3.45105,-0.5833c3.43887,9.02916 -4.58677,9.82482 -3.45105,0.5833z" fill="#dcd2b4"/><path d="M256.27867,121.44404l3.455,-0.58397c3.43492,9.02983 -4.59138,9.82154 -3.455,0.58397z" fill="#ffffff"/><path d="M247.21172,123.88525l3.46288,-0.5853c3.43509,9.03081 -4.59138,9.82154 -3.46288,0.5853z" fill="#ffffff"/><path d="M241.89024,122.93685l3.45105,-0.5833c3.43903,9.03015 -4.58677,9.82482 -3.45105,0.5833z" fill="#ffffff"/><path d="M251.17948,121.43878l3.455,-0.58397c3.41816,9.03266 -4.60437,9.82272 -3.455,0.58397z" fill="#ffffff"/><path d="M278.74668,118.80264l3.455,-0.58397c3.43492,9.02983 -4.59071,9.82549 -3.455,0.58397z" fill="#faf0e6"/><path d="M244.8846,104.48273c2.57287,-0.56468 5.18562,-0.94747 7.76927,-1.4724c5.79731,-1.18067 11.65202,-1.91974 17.45127,-3.11291c2.97132,0.05863 5.90245,-0.7086 8.92027,-0.59089c2.59329,0.09615 5.14754,0.65732 7.54283,1.65812c4.56263,1.88902 7.93085,6.84601 8.99252,11.57319c0.4948,2.20741 0.37844,4.87917 -1.4737,6.4498c-2.05315,1.73747 -5.54672,1.77523 -8.0484,2.26906c-6.47237,1.23697 -12.9539,2.4197 -19.46477,3.4289l-43.29415,7.8744c0.18136,-4.0093 0.77855,-7.98847 1.78022,-11.87273c1.21974,-4.71218 4.13339,-8.805 8.18084,-11.48806c3.18533,-2.18542 10.62143,-4.48892 11.6438,-4.71648z" fill="#d00083"/><path d="M288.97064,114.90828c1.53128,-0.25882 3.67969,0.54741 2.9929,2.58638c-0.60169,1.79843 -2.80565,1.21558 -3.61742,-0.05896c0.00111,-0.88151 0.21563,-1.74839 0.62452,-2.52743z" fill="#823c00"/><path d="M283.84,119.11517c-1.5593,1.44913 -3.37312,-0.70774 -2.78226,-2.35424l0.93808,-0.99627c1.75718,-0.32641 3.32608,1.98951 1.84418,3.35051z" fill="#823c00"/><path d="M255.86909,115.24054c1.39651,0.32988 0.65829,3.10268 -0.83476,1.67961c-0.09218,-0.83938 0.16854,-1.34895 0.83476,-1.67961z" fill="#000000"/></g></g></g></svg>