<svg version="1.1" xmlns="http://www.w3.org/2000/svg" xmlns:xlink="http://www.w3.org/1999/xlink" width="132.83182" height="143.6306" viewBox="0,0,132.83182,143.6306"><defs><linearGradient x1="257.79987" y1="130.03977" x2="257.79987" y2="139.91032" gradientUnits="userSpaceOnUse" id="color-1"><stop offset="0" stop-color="#2a2c2c"/><stop offset="1" stop-color="#ff2c6f"/></linearGradient></defs><g transform="translate(-165.02585,-107.82753)"><g data-paper-data="{&quot;isPaintingLayer&quot;:true}" fill-rule="nonzero" stroke-linejoin="miter" stroke-miterlimit="10" stroke-dasharray="" stroke-dashoffset="0" style="mix-blend-mode: normal"><path d="M189.74547,232.17975c-3.7686,1.08785 -8.08002,2.09043 -11.524,-0.27465c-3.51512,-2.41947 -5.85871,-6.92952 -8.18185,-10.44453c-1.1229,-1.70917 -2.00682,-3.50687 -3.04133,-5.28768c-0.73777,-1.27641 -2.13381,-3.08722 -1.95713,-4.648c1.21032,0.94471 2.00958,2.29112 3.32981,3.14317c1.23091,0.72545 2.53103,1.32589 3.8821,1.7931c1.97417,0.75376 4.32484,1.42189 6.4568,1.13932c5.36499,-0.71837 11.89417,-6.43946 16.81231,-8.36867c0.31785,0.27573 14.8456,9.27302 17.18637,14.43801c-1.08813,1.44713 -20.58541,7.83243 -22.96309,8.50994z" fill="#d00083" stroke="none" stroke-width="1" stroke-linecap="butt"/><path d="M246.60233,207.73254h15.235c-3.553,18.102 -6.621,38.419 -6.958,42.207c1.136,0.393 2.215,0.05 3.261,0.137c0.037,0.375 0.066,0.673 0.103,1.061c-1.491,-0.087 -7.865,0.178 -9.376,-0.227c0,-1.285 -2.265,-43.178 -2.265,-43.178z" fill="#d00083" stroke="none" stroke-width="1" stroke-linecap="butt"/><path d="M195.63957,209.34436c0.128,-9.361 -1.05624,-12.83583 6.27676,-19.92883c1.347,-1.301 3.2,-2.065 4.637,-3.144c2.19,-1.652 4.776,-2.858 7,-4.498c0.72,-0.525 2.145,-1.735 2.145,-1.735l1.35889,-1.67652l1.24711,-2.30648c0,0 1.866,-5.11 2.17,-6.791c2.002,-10.976 -0.107,-22.308 1.94,-33.305c0.222,-1.206 0.494,-2.511 0.774,-3.738l30.31,-3.838l31.183,2.065c3.627,2.71 -0.441,6.42 -3.434,7.849c-1.763,0.847 -3.397,1.653 -4.9,2.946c-0.326,0.281 -3.051,2.375 -3.953,5.056c-1.371,4.094 -1.005,9.572 -1.1,12.228c-0.177,5.003 0.103,10.055 0.293,15.054c0.374,9.894 0.778,19.416 -0.713,29.248c-0.679,4.498 -1.412,8.77 -4.158,12.508c-2.883,3.921 -6.305,7.155 -10.966,8.841c-8.614,3.111 -48.959,2.123 -51.808,1.83c-2.965,-0.306 -8.32703,-15.01738 -8.30276,-16.66417z" fill="#ff4fc6" stroke="none" stroke-width="1" stroke-linecap="butt"/><g fill="none" stroke="#000000" stroke-width="1"><g><path d="M248.71141,199.46289c0.81574,-1.54987 2.73346,-2.145 4.28333,-1.32925c1.54987,0.81574 2.14499,2.73346 1.32925,4.28333c-0.81574,1.54987 -2.73346,2.14499 -4.28333,1.32925c-1.54987,-0.81574 -2.14499,-2.73346 -1.32925,-4.28333z" stroke-linecap="butt"/><path d="M258.43848,204.32658c0.81574,-1.54987 2.73345,-2.145 4.28332,-1.32925c1.54987,0.81574 2.145,2.73346 1.32925,4.28333c-0.81574,1.54987 -2.73346,2.14499 -4.28333,1.32925c-1.54987,-0.81574 -2.14499,-2.73346 -1.32925,-4.28333z" stroke-linecap="butt"/><path d="M254.535,202.01607l3.91404,1.8041" stroke-linecap="round"/></g><path d="M263.72406,203.52484c0,0 -3.35337,-6.31904 -4.37693,-8.24781c-0.55304,-1.04212 -3.04068,-0.75143 -3.04068,-0.75143" stroke-linecap="round"/><path d="M249.55543,197.8593c0,0 -2.99184,-6.69351 -3.87911,-8.67856c-0.46341,-1.03677 -2.89086,-0.74775 -2.89086,-0.74775" stroke-linecap="round"/></g><path d="M237.12533,206.60054c0,0 -10.565,37.514 -10.565,43.864c0.568,0.099 3.545,-0.31 3.977,0.306c-0.362,1.26 -7.696,0.45 -9.182,0.206c-0.457,-1.367 -2.347,-43.244 -2.347,-43.244z" fill="#ff4fc6" stroke="none" stroke-width="1" stroke-linecap="butt"/><path d="M281.81433,190.54281c-0.589,0 -0.297,2.942 -0.672,2.942c-0.374,0 -0.21,-2.859 -0.881,-2.813c-0.671,0.045 -0.251,2.726 -0.877,2.726c-0.626,0 -0.037,-5.655 -0.062,-7.283c-0.037,-2.202 0.058,-4.412 -0.037,-6.61c-0.086,-1.966 -0.378,-3.916 -1.383,-5.639c-0.585,-1.003 -4.237,-3.565 -8.133,-3.883c-3.961,-0.326 -8.173,1.595 -9.227,1.405c0.063,-1.347 0.048,-2.696 -0.045,-4.04l0.325,-0.566c1.317,-0.083 4.809,-1.587 9.689,-1.19c3.393,0.273 7.374,2.111 8.148,2.627c2.656,1.768 3.797,4.809 3.966,7.688c0.16,2.722 0.226,5.466 0.3,8.196c0.066,2.429 0.606,8.713 0,8.882c-0.605,0.169 -0.527,-2.442 -1.111,-2.442z" data-paper-data="{&quot;index&quot;:null}" fill="#ff4fc6" stroke="none" stroke-width="1" stroke-linecap="butt"/><path d="M246.91537,189.74801c-0.589,0 -0.296,2.941 -0.671,2.941c-0.375,0 -0.21,-2.859 -0.881,-2.813c-0.672,0.045 -0.252,2.726 -0.877,2.726c-0.626,0 -0.037,-5.655 -0.062,-7.283c-0.037,-2.202 0.057,-4.412 -0.037,-6.61c-0.087,-1.966 -0.379,-3.916 -1.384,-5.639c-0.584,-1.003 -4.237,-3.565 -8.132,-3.883c-2.344,-0.203 -4.705,0.041 -6.959,0.719l-2.606,-3.982c0,0 5.427,-1.525 10.294,-1.128c3.393,0.273 7,1.619 7.761,2.136c2.656,1.772 4.184,5.3 4.353,8.179c0.16,2.723 0.226,5.466 0.3,8.196c0.066,2.429 0.606,8.713 0,8.882c-0.605,0.169 -0.514,-2.441 -1.099,-2.441z" data-paper-data="{&quot;index&quot;:null}" fill="#d00083" stroke="none" stroke-width="1" stroke-linecap="butt"/><path d="M260.77097,134.9362c0,4.19765 -1.32654,7.60053 -2.96291,7.60053c-1.63637,0 -2.96292,-3.40287 -2.96292,-7.60053c0,-4.19765 1.32654,-7.60052 2.96292,-7.60052c1.63637,0 2.96291,3.40287 2.96291,7.60052z" fill="#ff2c6f" stroke="none" stroke-width="none" stroke-linecap="butt"/><path d="M257.79987,139.91032v-9.87055" fill="none" stroke="url(#color-1)" stroke-width="0.5" stroke-linecap="round"/><g stroke="none" stroke-width="1" stroke-linecap="butt"><path d="M273.38833,129.73454c-0.075,2.466 -0.313,4.755 -1.722,6.87l-1.111,0.524c-3.027,-0.628 -3.035,-5.234 -2.557,-7.559c1.857,0.132 3.57,-0.091 5.39,0.165z" fill="#ffffff"/><path d="M275.10533,128.69354h3.5c1.885,9.476 -6.16,8.919 -3.5,0z" fill="#ffffff"/><path d="M262.74333,127.33854h3.5c1.886,9.476 -6.16,8.923 -3.5,0z" fill="#dcd2b4"/><path d="M257.62533,126.76854h3.504c1.882,9.476 -6.164,8.919 -3.504,0z" fill="#ffffff"/><path d="M252.59833,125.91354h3.504c1.865,9.476 -6.177,8.918 -3.504,0z" fill="#ffffff"/><path d="M280.21933,127.90854h3.504c1.882,9.476 -6.164,8.923 -3.504,0z" fill="#faf0e6"/><path d="M249.21733,108.14554c2.631,-0.128 5.271,-0.07 7.906,-0.157c5.913,-0.198 11.809,0.049 17.726,-0.161c2.92,0.553 5.938,0.285 8.894,0.904c2.541,0.527 4.966,1.506 7.161,2.892c4.184,2.623 6.679,8.072 6.938,12.91c0.12,2.259 -0.44,4.874 -2.528,6.114c-2.314,1.371 -5.765,0.826 -8.314,0.896c-6.588,0.141 -13.176,0.227 -19.764,0.137l-44.001,0.549c0.847,-3.923 2.099,-7.747 3.734,-11.41c1.988,-4.443 5.543,-7.993 9.981,-9.964c3.505,-1.624 11.221,-2.656 12.267,-2.71z" fill="#d00083"/><path d="M290.94933,125.77254c1.553,0 3.537,1.153 2.52,3.049c-0.893,1.673 -2.969,0.731 -3.557,-0.661c0.148,-0.869 0.504,-1.688 1.037,-2.388z" fill="#823c00"/><path d="M285.18933,129.06554c-1.779,1.169 -3.208,-1.26 -2.351,-2.785l1.091,-0.826c1.787,-0.029 2.948,2.516 1.26,3.611z" fill="#823c00"/><path d="M258.25533,120.58354c1.322,0.558 0.132,3.169 -1.103,1.517c0.049,-0.843 0.391,-1.302 1.103,-1.517z" fill="#000000"/></g></g></g></svg>