<svg version="1.1" xmlns="http://www.w3.org/2000/svg" xmlns:xlink="http://www.w3.org/1999/xlink" width="121.55358" height="152.33827" viewBox="0,0,121.55358,152.33827"><g transform="translate(-174.25768,-99.29423)"><g data-paper-data="{&quot;isPaintingLayer&quot;:true}" fill-rule="nonzero" stroke="none" stroke-width="1" stroke-linecap="butt" stroke-linejoin="miter" stroke-miterlimit="10" stroke-dasharray="" stroke-dashoffset="0" style="mix-blend-mode: normal"><path d="M280.85433,145.18073c0.5656,0.27548 -1.09841,6.35917 -1.60123,8.73648c-0.56495,2.67193 -1.12455,5.35907 -1.77264,8.00763c-0.68525,2.80136 -1.28177,5.23322 -1.89029,7.83659c-0.65479,0.28205 -4.50951,11.28227 -4.50951,11.28227c0.33377,-1.30521 -4.82592,-3.92794 -4.64505,-5.26423c1.07098,0.00313 5.27506,-11.81741 6.03129,-12.69852c1.29915,-1.51359 1.93791,-3.379 2.37693,-5.29729c0.48969,-2.14486 0.79466,-4.33578 1.22803,-6.49503c0.31808,-1.59682 0.7582,-7.26535 1.37395,-7.1525c0.61574,0.11285 -0.2807,2.67421 0.37119,2.83944c0.65171,0.16621 1.00581,-2.67551 1.37369,-2.60809c0.36886,0.0676 -0.44874,2.90876 0.13061,3.01494c0.57443,0.10528 0.96841,-2.477 1.53304,-2.2017z" fill="#ff4fc6"/><path d="M179.12576,195.4891c-2.62254,-2.91686 -5.40508,-6.35939 -4.77879,-10.49005c0.6442,-4.21841 3.68061,-8.29433 5.83052,-11.91788c1.04833,-1.7559 2.28055,-3.33535 3.43189,-5.04295c0.82685,-1.22059 1.84753,-3.26661 3.3291,-3.78832c-0.32228,1.50116 -1.1853,2.80761 -1.37626,4.36727c-0.11598,1.42407 -0.08929,2.85589 0.07952,4.27547c0.18269,2.10526 0.60665,4.51198 1.79074,6.30726c2.98628,4.51457 10.98216,7.89494 14.86318,11.47931c-0.1095,0.40628 -1.87005,17.40356 -5.49706,21.76258c-1.77681,-0.34805 -16.02617,-15.10853 -17.67283,-16.95269z" fill="#d00083"/><path d="M247.24503,198.1164h15.235c-3.553,18.102 -6.621,38.419 -6.958,42.207c1.136,0.393 2.215,0.05 3.261,0.137c0.037,0.375 0.066,0.673 0.103,1.061c-1.491,-0.087 -7.865,0.178 -9.376,-0.227c0,-1.285 -2.265,-43.178 -2.265,-43.178z" fill="#d00083"/><path d="M281.83275,121.47497c0,0 -1.00928,5.82947 -0.99159,8.32824c0.01656,2.33865 1.09459,6.21585 1.09459,6.21585l-57.482,2.60586l-1.12,-8.38528l58.499,-8.76466" fill="#000000"/><path d="M196.53205,211.23075c0.128,-9.361 -1.82831,-14.54785 5.50469,-21.64085c1.347,-1.301 3.2,-2.065 4.637,-3.144c2.19,-1.652 4.776,-2.858 7,-4.498c0.72,-0.525 2.145,-1.735 2.145,-1.735l2.606,-3.983c0,0 1.866,-5.11 2.17,-6.791c2.002,-10.976 -0.107,-22.308 1.94,-33.305c0.222,-1.206 0.494,-2.511 0.774,-3.738c0,0.78 16.24,1.726 33.427,1.726c6.506,0 29.128,-0.71 30.096,-0.194c3.15,1.682 -2.471,6.007 -5.464,7.436c-1.763,0.847 -3.397,1.653 -4.9,2.946c-0.326,0.281 -3.051,2.375 -3.953,5.056c-1.371,4.094 -1.005,6.68 -1.1,9.336c-0.177,5.003 0.103,10.055 0.293,15.054c0.374,9.894 0.778,19.416 -0.713,29.248c-0.679,4.498 -1.412,8.77 -4.158,12.508c-2.883,3.921 -6.305,7.155 -10.966,8.841c-8.614,3.111 -32.93785,1.48215 -35.78685,1.18915c-1.59755,-0.16487 -10.07169,-2.06475 -15.9279,-5.60082c-5.0127,-3.02675 -7.63916,-7.67787 -7.62395,-8.71049z" fill="#ff4fc6"/><path d="M238.55175,153.9349c0.606,0.169 0.066,6.453 0,8.882c-0.074,2.73 -0.14,5.473 -0.3,8.196c-0.11653,1.98522 -1.03306,3.61864 -1.4424,5.82843c-0.18429,0.99489 -4.90332,12.24465 -4.90332,12.24465l-5.93852,-2.75268c3.26415,-1.56621 3.0064,-2.80319 4.71757,-6.57244c2.06233,-3.50726 4.15267,-10.37996 4.23967,-12.34596c0.094,-2.198 0,-4.408 0.037,-6.61c0.025,-1.628 -0.564,-7.283 0.062,-7.283c0.625,0 0.205,2.681 0.877,2.726c0.671,0.046 0.506,-2.813 0.881,-2.813c0.375,0 0.082,2.941 0.671,2.941c0.585,0 0.494,-2.61 1.099,-2.441z" fill="#d00083"/><path d="M237.25875,206.77491c0,0 -10.565,37.514 -10.565,43.864c0.568,0.099 3.545,-0.31 3.977,0.306c-0.362,1.26 -7.696,0.45 -9.182,0.206c-0.457,-1.367 -2.347,-43.244 -2.347,-43.244z" fill="#ff4fc6"/><g><path d="M272.31552,121.74155c0.33703,2.44401 0.48383,4.74066 -0.55298,7.06091l-1.00813,0.70183c-3.08933,-0.11475 -3.86484,-4.655 -3.781,-7.02714c1.85303,-0.17933 3.50491,-0.68469 5.34212,-0.73559z" fill="#ffffff"/><path d="M273.83502,120.42896l3.45105,-0.5833c3.43788,9.02933 -4.58744,9.82088 -3.45105,0.5833z" fill="#ffffff"/><path d="M261.42008,121.15312l3.45105,-0.5833c3.43887,9.02916 -4.58677,9.82482 -3.45105,0.5833z" fill="#dcd2b4"/><path d="M256.27867,121.44405l3.455,-0.58397c3.43492,9.02983 -4.59138,9.82154 -3.455,0.58397z" fill="#ffffff"/><path d="M247.21172,123.88526l3.46288,-0.5853c3.43509,9.03081 -4.59138,9.82154 -3.46288,0.5853z" fill="#ffffff"/><path d="M241.89024,122.93686l3.45105,-0.5833c3.43903,9.03015 -4.58677,9.82482 -3.45105,0.5833z" fill="#ffffff"/><path d="M251.17948,121.43879l3.455,-0.58397c3.41816,9.03266 -4.60437,9.82272 -3.455,0.58397z" fill="#ffffff"/><path d="M278.74668,118.80265l3.455,-0.58397c3.43492,9.02983 -4.59071,9.82549 -3.455,0.58397z" fill="#faf0e6"/><path d="M244.8846,104.48274c2.57287,-0.56468 5.18562,-0.94747 7.76927,-1.4724c5.79731,-1.18067 11.65202,-1.91974 17.45127,-3.11291c2.97132,0.05863 5.90245,-0.7086 8.92027,-0.59089c2.59329,0.09615 5.14754,0.65732 7.54283,1.65812c4.56263,1.88902 7.93085,6.84601 8.99252,11.57319c0.4948,2.20741 0.37844,4.87917 -1.4737,6.4498c-2.05315,1.73747 -5.54672,1.77523 -8.0484,2.26906c-6.47237,1.23697 -12.9539,2.4197 -19.46477,3.4289l-43.29415,7.8744c0.18136,-4.0093 0.77855,-7.98847 1.78022,-11.87273c1.21974,-4.71218 4.13339,-8.805 8.18084,-11.48806c3.18533,-2.18542 10.62143,-4.48892 11.6438,-4.71648z" fill="#d00083"/><path d="M288.97064,114.90829c1.53128,-0.25882 3.67969,0.54741 2.9929,2.58638c-0.60169,1.79843 -2.80565,1.21558 -3.61742,-0.05896c0.00111,-0.88151 0.21563,-1.74839 0.62452,-2.52743z" fill="#823c00"/><path d="M283.84,119.11518c-1.5593,1.44913 -3.37312,-0.70774 -2.78226,-2.35424l0.93808,-0.99627c1.75718,-0.32641 3.32608,1.98951 1.84418,3.35051z" fill="#823c00"/><path d="M255.86909,115.24055c1.39651,0.32988 0.65829,3.10268 -0.83476,1.67961c-0.09218,-0.83938 0.16854,-1.34895 0.83476,-1.67961z" fill="#000000"/></g></g></g></svg>